<?xml version="1.0" encoding="utf-8"?>
<svg viewBox="0 0 500 500" xmlns="http://www.w3.org/2000/svg" xmlns:bx="https://boxy-svg.com">
  <title>PowerGrip's Mascot, Thorvald!</title>
  <desc>
    Name: Thorvald
    Title: The Sentinel of the Secure Shores
    Backstory:
    In the vast wilderness of the digital domain, there stands a sentinel,
    mighty and vigilant. Thorvald, the muscular penguin with a band of valor,
    is a legend whispered across the network streams.
    His presence is as commanding as a thunderclap, his resolve as unyielding as the ancient mountains.
    Forged in the depths of the open-source abyss, Thorvald was chosen by the fates to be the
    protector of the Linux lands. His band, shimmering with the essence of a thousand firewalls,
    is a beacon of hope and strength.
    Thorvald's muscles ripple with the power of secure codes and encrypted data,
    a testament to the fortitude of the systems he defends.
    With a heart as warm as his homeland is cold, Thorvald wields PowerGrip,
    the AI-driven security suite, like a hammer of justice.
    Each swing banishes vulnerabilities, each grip tightens the safety of the digital realm.
    Thorvald is not just a guardian; he is the thunderous roar of safety echoing through every
    server and system. He is the promise of security, the assurance that with PowerGrip,
    every user is equipped to face the storms of cyber threats.
    As the face of PowerGrip, Thorvald stands tall, a colossus in the landscape of Linux,
    a name that strikes like thunder, leaving an indelible mark of trust and power in
    the hearts of all who seek sanctuary in the world of technology.
</desc>
  <defs>
    <linearGradient gradientUnits="userSpaceOnUse" x1="232.074" y1="76.603" x2="232.074" y2="415.495" id="gradient-0" gradientTransform="matrix(0.9355, 0.353326, -0.273488, 0.724113, 74.943131, -19.400637)">
      <stop offset="0" style=""/>
      <stop offset="1" style="stop-color: rgb(0% 0% 0%)"/>
    </linearGradient>
    <linearGradient gradientUnits="userSpaceOnUse" x1="232.074" y1="76.603" x2="232.074" y2="415.495" id="gradient-1" gradientTransform="matrix(0.901354, 0.433084, -0.379045, 0.788886, 112.091799, -52.628155)">
      <stop offset="0" style="stop-color: rgb(0, 106, 255);"/>
      <stop offset="1" style="stop-color: rgb(85, 0, 255);"/>
    </linearGradient>
    <linearGradient gradientUnits="userSpaceOnUse" x1="258.946" y1="122.9" x2="258.946" y2="204.612" id="gradient-2" gradientTransform="matrix(0.928486, 0.371368, -0.32834, 0.820906, 62.123306, -66.836607)">
      <stop offset="0" style="stop-color: rgb(100% 83.137% 0%)"/>
      <stop offset="1" style="stop-color: rgb(184, 147, 0);"/>
    </linearGradient>
    <linearGradient gradientUnits="userSpaceOnUse" x1="228.79" y1="145.631" x2="228.79" y2="439.981" id="gradient-3" gradientTransform="matrix(0.60271, 0.79796, -0.444232, 0.335535, 166.6711, 32.77173)">
      <stop offset="0" style="stop-color: rgb(0, 106, 255);"/>
      <stop offset="1" style="stop-color: rgb(54, 40, 255);"/>
    </linearGradient>
  </defs>
  <path style="stroke: url('#gradient-0'); fill: url('#gradient-1');" d="M 127.642 166.667 C 127.642 166.667 158.529 153.212 169.919 144.715 C 179.366 137.667 184.253 129.91 192.683 121.138 C 203.277 110.114 214.116 90.878 228.455 83.74 C 242.424 76.787 262.693 74.968 277.236 78.049 C 290.613 80.883 304.508 88.902 313.008 99.187 C 321.929 109.982 328.463 130.581 328.455 142.276 C 328.45 150.31 321.471 155.063 321.138 162.602 C 320.733 171.77 323.996 182.669 329.268 193.496 C 336.445 208.234 353.899 224.47 365.041 240.65 C 376.111 256.726 390.056 272.855 395.935 290.244 C 401.452 306.562 404.136 325.152 400.813 341.463 C 397.39 358.261 388.536 378.13 374.797 389.431 C 359.444 402.06 331.879 405.421 309.756 409.756 C 287.702 414.078 262.742 415.815 242.276 415.447 C 225.136 415.139 211.26 413.113 195.122 409.756 C 177.467 406.083 156.299 401.825 140.65 393.496 C 126.365 385.893 114.832 374.295 104.065 363.415 C 93.832 353.074 83.988 342.535 77.236 330.081 C 70.352 317.384 65.549 302.08 63.415 287.805 C 61.335 273.887 61.153 259.878 64.228 245.528 C 67.7 229.325 74.585 209.157 85.366 195.935 C 95.895 183.023 127.642 166.667 127.642 166.667 C 127.642 166.667 127.642 166.667 127.642 166.667 C 127.642 166.667 127.642 166.667 127.642 166.667" bx:d="M 127.642 166.667 R 169.919 144.715 R 192.683 121.138 R 228.455 83.74 R 277.236 78.049 R 313.008 99.187 R 328.455 142.276 R 321.138 162.602 R 329.268 193.496 R 365.041 240.65 R 395.935 290.244 R 400.813 341.463 R 374.797 389.431 R 309.756 409.756 R 242.276 415.447 R 195.122 409.756 R 140.65 393.496 R 104.065 363.415 R 77.236 330.081 R 63.415 287.805 R 64.228 245.528 R 85.366 195.935 R 127.642 166.667 R 127.642 166.667 Z 1@f6ca656a"/>
  <path style="stroke: rgb(0, 0, 0); fill: rgb(236, 236, 236);" d="M 100 358.537 C 100 358.537 112.11712078483903 307.89767340030687 121.138 285.366 C 129.47751861949652 264.5361778320595 140.78612413883295 245.01154924835103 151.22 227.642 C 160.3909198779282 212.3749269974142 170.51807374634348 198.99406786321285 179.675 186.179 C 187.7917738996897 174.81961962786454 196.48586210304623 163.24340031829533 203.252 154.472 C 208.163961727229 148.10429314657202 210.63756722022734 142.5633679466345 216.26 138.211 C 222.52282840130047 133.36289693558334 231.34549440929544 129.3352608587482 239.837 127.642 C 248.87654901295826 125.83945575612249 259.54753453417743 126.7251928152269 269.106 128.455 C 278.79427884405436 130.20829967058563 291.5981991283002 131.71640187151897 297.561 138.211 C 303.5325890368473 144.71517007330164 304.13671241979074 156.6203028137282 304.878 167.48 C 305.7831323527671 180.7399864438227 298.4259805685783 199.02360561193194 300 212.195 C 301.30919296588286 223.15032656045625 306.90909144349325 231.3937860299903 310.569 241.463 C 314.4778346358984 252.2170644020384 319.1269338820354 264.7355899682345 322.764 274.797 C 325.76542705464533 283.1000077809312 328.90555317369757 288.94603801535635 330.894 297.561 C 333.34780123597835 308.1921137347001 334.16236842425457 322.78898123991854 334.959 334.146 C 335.6494945253772 343.9898971253474 336.18871342539893 352.65903227859354 335.772 361.789 C 335.3600572408798 370.8144449811254 333.3940787141378 380.89853853269227 332.52 388.618 C 331.8573515432281 394.4702066098677 333.835198782807 400.54417022829415 330.894 404.065 C 327.5294950949263 408.0925581188459 318.8949624274553 408.14510829103875 311.382 409.756 C 301.4812281880308 411.8788738168494 287.5804504566809 413.54755224677376 276.423 414.634 C 266.2551211529675 415.62408901462976 256.83644889994963 416.4052896618857 247.154 416.26 C 237.59701797531895 416.1165930270988 228.70273064654384 415.0438608701681 218.699 413.821 C 207.43290711405433 412.4438273594451 194.49971150570443 410.6337721181388 182.927 408.13 C 171.75990484956682 405.7139835405492 159.29168177580303 403.062550792352 150.407 399.187 C 143.5515129735802 396.19659597117374 138.8421665608828 392.2051566529453 133.333 388.618 C 128.01420543243893 385.1547993311099 122.97307092470678 382.4609932210948 117.886 378.049 C 111.83641906181516 372.8022262701301 100 358.537 100 358.537 C 100.00000000000001 358.537 100 358.53700000000003 100 358.537" bx:d="M 100 358.537 R 121.138 285.366 R 151.22 227.642 R 179.675 186.179 R 203.252 154.472 R 216.26 138.211 R 239.837 127.642 R 269.106 128.455 R 297.561 138.211 R 304.878 167.48 R 300 212.195 R 310.569 241.463 R 322.764 274.797 R 330.894 297.561 R 334.959 334.146 R 335.772 361.789 R 332.52 388.618 R 330.894 404.065 R 311.382 409.756 R 276.423 414.634 R 247.154 416.26 R 218.699 413.821 R 182.927 408.13 R 150.407 399.187 R 133.333 388.618 R 117.886 378.049 R 100 358.537 Z 1@50bf0fae"/>
  <path style="stroke: rgb(0, 0, 0); fill: rgb(255, 212, 0);" d="M 182.927 129.786 C 182.927 129.786 197.64649739791744 126.50011044734167 204.579 124.703 C 211.05921045991346 123.02313710099662 216.69596368341624 120.97764445573797 223.273 119.394 C 230.47273719998805 117.6604191969288 237.6249042725209 115.73475536227296 246.115 114.862 C 256.5828575185801 113.78593689375246 271.100442672314 113.29579274252268 281.514 114.543 C 289.96825340678436 115.55554603721829 297.75730586941273 116.88934110904246 304.136 120.257 C 309.95850393035016 123.33101589216409 314.3132214591058 129.55491716684898 318.699 133.136 C 322.10610666428704 135.91797612406236 328.67679508263234 138.57873057867 328.072 140.193 C 325.94205430693995 145.87807631781024 182.927 129.786 182.927 129.786 C 182.92700000000002 129.786 182.927 129.786 182.927 129.786 C 182.927 129.786 182.92700000000002 129.78600000000003 182.927 129.786" bx:d="M 182.927 129.786 R 204.579 124.703 R 223.273 119.394 R 246.115 114.862 R 281.514 114.543 R 304.136 120.257 R 318.699 133.136 R 328.072 140.193 R 182.927 129.786 R 182.927 129.786 Z 1@335d6672"/>
  <path style="stroke: rgb(0, 0, 0); fill: url('#gradient-2');" d="M 187.805 130.082 C 187.805 130.082 215.5414565785686 124.92193656396584 228.455 123.578 C 240.08195250103356 122.36796135423992 251.13891418058665 121.45565837165802 261.788 121.952 C 271.6711942748424 122.41264430532176 281.8145545911178 124.14381166905079 290.244 126.017 C 297.1949790611719 127.56164407021835 302.7048114895875 129.47292258679994 308.943 131.708 C 315.4134179929811 134.02628279731147 328.322518268017 136.8233151890777 328.371 139.754 C 328.4246968694906 142.99993601287363 311.2885683143401 144.91631955110842 304.878 150.407 C 298.176901429594 156.14652091335148 293.39635393573735 166.59333951964143 289.431 173.984 C 286.2119815486834 179.98363404004868 285.35629305558535 186.08557619802406 282.114 191.057 C 279.0414060978141 195.7682232599759 275.4852947390749 201.19976240804505 270.732 203.252 C 265.8214746111331 205.37212201062115 258.8072039553791 203.30670042260567 252.929 203.168 C 247.15585912907355 203.03177861594497 240.97358920383175 204.64077877856027 235.772 202.439 C 229.98188153799887 199.98810288848014 223.7111690645637 193.53423237556984 220.325 187.805 C 217.09800637950352 182.3450846875058 217.24590381337268 175.16815149159908 215.447 169.106 C 213.71101946813874 163.2558945678039 211.7495561494049 157.39135195570134 209.756 152.033 C 207.93919369937987 147.14972264813585 207.39699835956034 141.79671089679755 204.065 138.212 C 200.39033202108297 134.2586300025805 187.805 130.082 187.805 130.082 C 187.805 130.082 187.805 130.082 187.805 130.082 C 187.805 130.082 187.80500000000004 130.082 187.805 130.082" bx:d="M 187.805 130.082 R 228.455 123.578 R 261.788 121.952 R 290.244 126.017 R 308.943 131.708 R 328.371 139.754 R 304.878 150.407 R 289.431 173.984 R 282.114 191.057 R 270.732 203.252 R 252.929 203.168 R 235.772 202.439 R 220.325 187.805 R 215.447 169.106 R 209.756 152.033 R 204.065 138.212 R 187.805 130.082 R 187.805 130.082 Z 1@f5bbb9e1"/>
  <path style="stroke: rgb(0, 0, 0); fill: rgba(216, 216, 216, 0);" d="M 256.302 189.832 C 256.302 189.832 259.489 192.844 259.591 194.318 C 259.682 195.631 257.498 198.206 257.498 198.206" bx:d="M 256.302 189.832 R 259.591 194.318 R 257.498 198.206 1@cc2e9e43"/>
  <path style="stroke: rgb(0, 0, 0); fill: rgba(216, 216, 216, 0);" d="M 248.527 181.459 C 248.527 181.459 251.42 184.753 251.517 186.543 C 251.62 188.431 248.826 192.524 248.826 192.524" bx:d="M 248.527 181.459 R 251.517 186.543 R 248.826 192.524 1@583079bf"/>
  <path style="stroke: rgb(0, 0, 0); fill: rgba(216, 216, 216, 0);" d="M 260.787 181.16 C 260.787 181.16 263.51 183.179 263.778 184.45 C 264.055 185.76 262.282 188.935 262.282 188.935" bx:d="M 260.787 181.16 R 263.778 184.45 R 262.282 188.935 1@a0323db7"/>
  <path style="stroke: rgb(0, 0, 0); fill: rgb(4, 0, 142);" d="M 223.407 85.998 C 223.407 85.998 229.10329203368462 86.47210179896162 232.079 86.896 C 235.2708242410182 87.35068458905047 239.07031589634587 88.14072093667485 241.948 88.69 C 244.1918081310392 89.11828774254046 245.7616711254826 89.51496089429565 247.928 89.886 C 250.47937551733065 90.32298816989514 253.5852364267849 90.7796305882265 256.302 91.082 C 258.86011486856773 91.36671218315935 261.2600111327487 91.62789323105724 263.778 91.68 C 266.3427045232164 91.7330734935868 268.9627637744087 91.53036244486678 271.553 91.381 C 274.1461002727938 91.23147240375123 276.7348997272062 90.93252759624879 279.328 90.783 C 281.9182362255912 90.63363755513322 284.33757405359466 90.57783653860132 287.103 90.484 C 290.26485286931404 90.37671188794309 293.93191124665174 90.23407410363853 297.27 90.185 C 300.50790105959624 90.1373987814852 303.92813399372625 89.87219089028268 306.84 90.185 C 309.33723033484114 90.4532666015942 312.2023347660747 90.62266238164405 313.718 91.68 C 314.8461190121592 92.46698293187691 315.65044538642906 93.81323781348658 315.811 94.97 C 315.9677123783865 96.09907969098086 314.64615609695835 97.38247932726453 314.746 98.529 C 314.8458088397114 99.67511803590267 315.6621754700271 100.72425068094643 316.409 101.848 C 317.31912514779714 103.21746829414894 318.90680998312587 104.67501368796522 319.997 106.034 C 320.98043548226144 107.25991047292348 322.14279307346067 108.30442295984544 322.689 109.623 C 323.21927518003565 110.90311682639923 323.36810784993935 112.505413886666 323.287 113.809 C 323.21416289572153 114.97965657323925 323.1727216943183 116.31257192564806 322.39 117.099 C 321.3881472373437 118.10559678227806 319.1066683561643 118.33922713869444 317.007 118.594 C 314.1739021602608 118.93776688150297 310.40264126626596 118.66066746135886 306.84 118.295 C 302.8296881312714 117.88338388411971 297.96020851440943 116.76483479968893 294.149 116.049 C 291.0136849337359 115.46011392254312 288.5015128111718 114.88668325146632 285.594 114.349 C 282.5854611569045 113.79263411191081 279.9743721984082 113.13236543884382 276.389 112.773 C 271.4343654886484 112.27639203102174 264.5164081245557 112.00515006770993 258.563 112.234 C 252.5549518251204 112.46495030430475 245.68885367861884 113.39937315744805 240.504 114.175 C 236.53916974109424 114.76811775521286 233.38311047273 115.71522716655396 230.074 116.18 C 227.10952772899793 116.59636753696203 224.18799461520598 116.9564177323341 221.584 116.939 C 219.3625154026953 116.92414082023272 217.55903271451638 116.7644369656442 215.413 116.304 C 212.95512123449 115.77665564357072 210.00059903947212 114.4690788877857 207.689 113.743 C 205.82289180139105 113.15685087024299 204.164187348602 112.90304471399983 202.605 112.234 C 201.14724034165047 111.6084777402309 199.3188991045194 111.12264837202692 198.587 109.922 C 197.7978890962257 108.62749818121799 197.82779183369254 106.13808020959115 198.338 104.539 C 198.84476693659144 102.9507051966389 200.36877349645601 101.57562894274471 201.614 100.352 C 202.84332787336754 99.14399393709176 204.6671136391296 98.54766480980783 205.75 97.231 C 206.86633471472223 95.87366585308158 207.491124573528 93.90951171081808 208.156 92.278 C 208.77206258949448 90.76626819380213 208.72731251466004 88.98174734824178 209.651 87.793 C 210.5988078332254 86.57321076795807 212.06575821536168 85.5327542564368 213.838 85.101 C 216.30057979731197 84.50106531923532 223.407 85.998 223.407 85.998 C 223.40700000000004 85.998 223.407 85.998 223.407 85.998 C 223.407 85.998 223.40699999999995 85.99799999999999 223.407 85.998" bx:d="M 223.407 85.998 R 232.079 86.896 R 241.948 88.69 R 247.928 89.886 R 256.302 91.082 R 263.778 91.68 R 271.553 91.381 R 279.328 90.783 R 287.103 90.484 R 297.27 90.185 R 306.84 90.185 R 313.718 91.68 R 315.811 94.97 R 314.746 98.529 R 316.409 101.848 R 319.997 106.034 R 322.689 109.623 R 323.287 113.809 R 322.39 117.099 R 317.007 118.594 R 306.84 118.295 R 294.149 116.049 R 285.594 114.349 R 276.389 112.773 R 258.563 112.234 R 240.504 114.175 R 230.074 116.18 R 221.584 116.939 R 215.413 116.304 R 207.689 113.743 R 202.605 112.234 R 198.587 109.922 R 198.338 104.539 R 201.614 100.352 R 205.75 97.231 R 208.156 92.278 R 209.651 87.793 R 213.838 85.101 R 223.407 85.998 R 223.407 85.998 Z 1@f4f3a5e4"/>
  <path style="stroke: rgb(0, 0, 0); fill: rgb(255, 255, 255);" d="M 228.373 96.203 C 228.373 96.203 230.88848829499602 95.32891057170008 232.429 95.01 C 234.38989851051687 94.60406263321245 237.1118461545003 93.70974163878532 239.228 94.175 C 241.36984865459334 94.64590763137338 243.55032457242655 96.31573566206141 245.192 97.873 C 246.79420482163744 99.39282321773385 247.6744761295129 101.91453401084867 249.009 103.36 C 250.0821201619947 104.52233117349172 252.4719668280996 105.32771153124214 252.349 106.103 C 252.20542439800747 107.00822387492714 248.80391097990434 107.73599156595718 246.862 108.25 C 244.8020542268517 108.7952513076172 242.39124548664418 109.18957211632717 240.301 109.205 C 238.39159642662065 109.21909310839459 236.4937888383583 108.92687504008072 234.815 108.489 C 233.30151873280562 108.09424179373138 231.86199764636203 107.73502406299413 230.64 106.819 C 229.27543044805913 105.79610233000184 227.8424151753205 103.97206828909225 227.181 102.406 C 226.5914909718778 101.01018776356557 226.21832850305688 99.07552338179461 226.584 97.992 C 226.8595937910765 97.17538640280961 228.373 96.203 228.373 96.203 C 228.37300000000002 96.203 228.373 96.203 228.373 96.203 C 228.373 96.203 228.37299999999996 96.20299999999997 228.373 96.203" bx:d="M 228.373 96.203 R 232.429 95.01 R 239.228 94.175 R 245.192 97.873 R 249.009 103.36 R 252.349 106.103 R 246.862 108.25 R 240.301 109.205 R 234.815 108.489 R 230.64 106.819 R 227.181 102.406 R 226.584 97.992 R 228.373 96.203 R 228.373 96.203 Z 1@58f9a7ad"/>
  <path style="stroke: rgb(0, 0, 0); fill: rgb(255, 255, 255);" d="M 276.567 108.348 C 276.567 108.348 278.72601039412405 106.79785516527764 279.668 105.843 C 280.64034809322385 104.85737171549337 281.32546151877557 103.42274001287603 282.292 102.503 C 283.17044527850186 101.66708783772712 284.09502327975906 101.00575459292514 285.155 100.475 C 286.27036157481785 99.91651294334808 287.5166741467825 99.54227786222043 288.852 99.282 C 290.35231717463813 98.98956250549145 292.1637458809033 98.72125318582489 293.743 98.925 C 295.3038987463711 99.1263787033875 297.1135483530894 99.63589591259579 298.276 100.475 C 299.3038228221089 101.21692361759821 300.3784602918389 102.36915146258232 300.542 103.457 C 300.7069879303852 104.55448195578464 300.04939325673797 105.89726427558391 299.23 107.036 C 298.1296497833105 108.56519015480012 295.8861502786255 110.53793390349578 293.862 111.33 C 291.8640994335773 112.11179437542775 289.26251367263063 111.78128136380361 287.182 111.807 C 285.3602785170666 111.82951953096345 283.52329206660215 111.90205065262914 282.053 111.568 C 280.8623571063143 111.29748569558487 279.8837697339378 110.81136371254172 278.952 110.256 C 278.0645702226932 109.72706427930171 276.567 108.348 276.567 108.348 C 276.56700000000006 108.34800000000003 276.567 108.348 276.567 108.348 C 276.567 108.348 276.56699999999995 108.34799999999998 276.567 108.348" bx:d="M 276.567 108.348 R 279.668 105.843 R 282.292 102.503 R 285.155 100.475 R 288.852 99.282 R 293.743 98.925 R 298.276 100.475 R 300.542 103.457 R 299.23 107.036 R 293.862 111.33 R 287.182 111.807 R 282.053 111.568 R 278.952 110.256 R 276.567 108.348 R 276.567 108.348 Z 1@52b97cbd"/>
  <path style="stroke: rgb(0, 0, 0); fill: rgb(4, 0, 142);" d="M 125.968 58.672 C 128.4437230443357 55.21531367894688 139.25229442436844 56.49048812944918 145.177 56.245 C 150.24496908841252 56.03501045102771 154.72608685286625 56.101355153754625 159.331 56.852 C 163.8901853848186 57.595190784026286 170.30340220963632 58.578532727500765 172.676 60.694 C 174.13583607631764 61.99562619859406 174.87528382217218 63.93065030452951 174.698 65.547 C 174.4982326378275 67.36833886248772 172.68881181457473 69.60359454720619 170.856 71.006 C 168.67336543367776 72.67607796050069 162.1144156219147 72.90692490460684 161.959 74.241 C 161.81847545374077 75.44725130952861 165.86637460833003 77.40982020454854 168.43 78.487 C 171.53897451712518 79.79332367166529 175.74389231530677 80.12425037004068 179.551 80.914 C 183.5517813040158 81.74392544894333 187.74250028349198 82.50513450333399 191.885 83.34 C 196.09875224944366 84.1892254931341 201.31701132579326 85.12142955410054 204.623 85.969 C 206.77283742199876 86.52016300808621 209.9326129274451 87.27693420742524 209.88 87.586 C 209.77758227651387 88.18763568955517 195.68054385456557 87.13674365698004 189.054 86.777 C 182.99383046426885 86.44800382966592 177.01033857945515 85.96255415090044 171.665 85.564 C 167.08839633837934 85.22276354523625 162.74279033104426 85.3821706791091 158.927 84.553 C 155.64260385861877 83.83930120034215 151.9929928135876 82.80105880536513 150.03 81.318 C 148.67809999953315 80.29662733587841 147.69626330678605 79.00702505627861 147.401 77.678 C 147.11130446602272 76.37403633604626 147.39514196539938 74.6136340191674 148.21 73.432 C 149.18376730900448 72.01993000717393 151.56854549163768 71.29536694710218 153.467 70.197 C 155.63537436817825 68.94246863016215 160.68914635407742 66.70727308270847 160.544 66.355 C 160.2526741809869 65.6479464540212 134.68751815433293 78.63582227623962 129.406 75.454 C 125.56802181205225 73.14183063178237 123.63928864152626 61.92342374747219 125.968 58.672" bx:d="M 125.968 58.672 R 145.177 56.245 R 159.331 56.852 R 172.676 60.694 R 174.698 65.547 R 170.856 71.006 R 161.959 74.241 R 168.43 78.487 R 179.551 80.914 R 191.885 83.34 R 204.623 85.969 R 209.88 87.586 R 189.054 86.777 R 171.665 85.564 R 158.927 84.553 R 150.03 81.318 R 147.401 77.678 R 148.21 73.432 R 153.467 70.197 R 160.544 66.355 R 129.406 75.454 L 125.968 58.672 Z 1@c6cb141a"/>
  <path style="stroke: rgb(0, 0, 0); fill: rgb(4, 0, 142);" d="M 208.535 89.89 C 208.535 89.89 188.62489078718949 90.00308976864851 180.974 90.503 C 175.48876795281544 90.8614057984877 167.3062082521092 90.47225423982802 166.887 92.034 C 166.5111155243944 93.43434453791858 176.41449132010314 97.39967383181435 176.074 98.771 C 175.74674457053712 100.08901872061652 168.85598228219052 100.7403842106884 165.662 100.302 C 162.73179563595494 99.89982014620112 160.1515418655718 98.26183110640525 157.57 96.7 C 154.82877400832763 95.04156010383657 152.77533387782486 91.06113466739926 149.738 90.503 C 146.38064617847317 89.88605907947748 140.61291297355368 92.07560606920826 138.102 94.178 C 136.16524175590067 95.79965268995463 134.03249958217265 98.81369953455074 134.733 100.609 C 135.81250406645447 103.37564239397732 145.36477028854864 104.95298143504733 150.963 106.427 C 156.68689182068997 107.9341055034093 163.61966674936065 109.78366856506867 168.725 109.489 C 172.6866086800001 109.26034469234638 176.70722145589443 108.05780730044552 179.137 106.427 C 180.92584389763178 105.22637219188456 182.66509748643136 103.52769786489328 182.811 101.833 C 182.97003511005076 99.98576341130882 178.66085487420463 97.3909281503008 179.443 95.709 C 181.0544776972119 92.24367161894492 208.535 89.89 208.535 89.89 C 208.53499999999997 89.88999999999999 208.535 89.89 208.535 89.89 C 208.535 89.89 208.53500000000005 89.89000000000001 208.535 89.89" bx:d="M 208.535 89.89 R 180.974 90.503 R 166.887 92.034 R 176.074 98.771 R 165.662 100.302 R 157.57 96.7 R 149.738 90.503 R 138.102 94.178 R 134.733 100.609 R 150.963 106.427 R 168.725 109.489 R 179.137 106.427 R 182.811 101.833 R 179.443 95.709 R 208.535 89.89 R 208.535 89.89 Z 1@0558bc7f"/>
  <path style="stroke: rgb(0, 0, 0); fill: url('#gradient-3');" d="M 118.68 263.547 C 118.68 263.547 135.9660786551526 266.7375078484461 144.721 265.209 C 154.41783265094037 263.51604534875656 166.2353567806736 259.02648611293927 174.086 252.466 C 181.93081331889616 245.91038571472436 188.34405901397935 236.36097278783984 191.816 225.871 C 195.85579924085923 213.66532476658583 197.84703177827245 195.08806672169538 194.033 182.654 C 190.51625344505103 171.18910829232416 181.05994576917567 159.22360654741146 171.87 153.288 C 163.55630662323335 147.9183477648559 153.14414458904528 147.60776368832973 142.504 146.639 C 130.1667598068244 145.51571918240137 115.0041165001757 144.54493715470326 102.058 148.301 C 88.3436279835059 152.2799571781647 73.26834418431201 159.76802321961338 62.719 171.018 C 50.72452136848873 183.80908954450567 41.00798504272409 205.13729368243938 36.678 223.654 C 32.368282888226254 242.0840327329249 32.87780446831882 264.1250216571647 36.678 281.831 C 40.151597878504795 298.0152853336855 47.04094766460036 311.58315322067483 56.624 326.157 C 68.10837716089047 343.6223698259093 85.10075369624484 363.10688373436983 103.72 377.685 C 123.507441750706 393.1777660193742 151.459034992052 405.5555121239562 172.978 415.361 C 190.65776422293365 423.41708976432 204.27365768137548 430.1705652057287 222.844 433.954 C 244.707129796824 438.4082919331116 270.8248786763882 443.9525470167913 296.535 437.278 C 329.9593530438167 428.60077856301297 385.92849611684983 406.69434654065054 402.621 371.786 C 423.3192279855044 328.5006474637197 384.7653767544309 181.5213549218568 378.601 181.608 C 373.88880194388196 181.6742335845234 380.60518324222477 270.5042186957449 367.694 293.088 C 359.7189431720568 307.0376850065806 345.6827305431477 316.42342875290325 333.152 318.253 C 320.5044438096918 320.09962858020526 303.6849618734925 311.58080300246604 292.102 303.748 C 280.61857038593286 295.98250418450255 274.3259766080669 278.99029580717144 263.845 271.612 C 254.84022673885093 265.2729074438608 245.64870981014175 262.17729321362816 234.479 259.977 C 220.83960512774553 257.29020969966757 202.2119632258335 258.23108247087396 187.383 259.423 C 173.92314306637002 260.5048719538514 161.20735777222998 265.530999581678 149.153 266.071 C 138.45242028966166 266.55035507051093 118.68 263.547 118.68 263.547 C 118.67999999999998 263.54699999999997 118.68 263.547 118.68 263.547 C 118.68 263.547 118.68 263.547 118.68 263.547" bx:d="M 118.68 263.547 R 144.721 265.209 R 174.086 252.466 R 191.816 225.871 R 194.033 182.654 R 171.87 153.288 R 142.504 146.639 R 102.058 148.301 R 62.719 171.018 R 36.678 223.654 R 36.678 281.831 R 56.624 326.157 R 103.72 377.685 R 172.978 415.361 R 222.844 433.954 R 296.535 437.278 R 402.621 371.786 R 378.601 181.608 R 367.694 293.088 R 333.152 318.253 R 292.102 303.748 R 263.845 271.612 R 234.479 259.977 R 187.383 259.423 R 149.153 266.071 R 118.68 263.547 R 118.68 263.547 Z 1@314619c1"/>
  <path d="M 124.14 171.833 C 130.954 171.833 136.477 177.107 136.477 183.613 C 136.477 190.119 130.954 195.393 124.14 195.393 C 122.375 195.393 120.697 195.039 119.179 194.402 C 119.041 194.555 118.879 194.713 118.687 194.876 C 117.114 196.213 112.792 196.841 109.852 199.413 C 106.023 202.762 101.89 208.852 98.39 214.854 C 95.493 219.822 92.678 228.66 90.25 234.113 C 92.009 234.517 93.71 234.868 95.127 235.151 C 98.434 235.812 100.308 236.055 103.882 236.266 C 108.584 236.543 116.909 236.814 121.394 236.266 C 124.658 235.866 126.447 235.282 129.035 234.196 C 130.31 233.661 131.796 232.976 133.223 232.213 C 132.963 232.205 132.716 232.196 132.486 232.186 C 130.823 232.115 129.463 232.156 128.359 231.767 C 127.433 231.44 126.669 230.84 126.155 230.263 C 125.709 229.761 125.476 229.133 125.316 228.584 C 125.17 228.085 125.122 227.638 125.176 227.115 C 125.236 226.527 125.44 225.775 125.735 225.226 C 126.02 224.697 126.399 224.233 126.89 223.862 C 127.419 223.461 128.148 223.117 128.849 222.952 C 129.568 222.783 130.451 222.852 131.157 222.882 C 131.791 222.909 132.086 223.049 132.906 223.092 C 134.227 223.162 136.963 223.219 138.712 223.092 C 139.959 223.002 141.186 222.65 142.213 222.516 C 142.502 222.422 142.789 222.353 143.05 222.323 C 143.79 222.237 144.555 222.383 145.218 222.672 C 145.899 222.969 146.649 223.642 147.072 224.107 C 147.398 224.464 147.459 224.573 147.702 225.156 C 148.165 226.267 148.872 229.393 149.451 231.032 C 149.92 232.362 150.616 233.477 150.85 234.39 C 151.022 235.061 151.05 235.494 150.99 236.069 C 150.925 236.681 150.732 237.4 150.43 237.958 C 150.133 238.506 149.663 239.031 149.206 239.392 C 148.782 239.726 148.297 239.94 147.807 240.091 C 147.318 240.243 146.831 240.347 146.268 240.301 C 145.613 240.248 144.684 239.989 144.099 239.672 C 143.585 239.393 143.244 239.054 142.875 238.587 C 142.45 238.051 142.118 237.361 141.755 236.559 C 141.712 236.464 141.669 236.366 141.627 236.266 C 139.315 237.811 135.652 240.175 133.651 241.201 C 131.459 242.324 129.767 242.923 127.92 243.429 C 126.221 243.895 125.449 244.056 122.985 244.225 C 118.637 244.524 107.763 244.551 102.29 244.225 C 98.207 243.982 95.91 243.633 92.42 242.952 C 88.577 242.202 82.967 240.736 80.163 239.768 C 78.359 239.145 77.865 238.932 76.342 238.017 C 74.206 236.733 70.832 234.77 68.462 232.206 C 65.805 229.332 63.089 224.863 61.457 221.222 C 59.976 217.916 59.178 214.436 58.751 211.352 C 58.369 208.586 58.515 205.825 58.751 203.552 C 58.952 201.617 59.114 200.086 59.866 198.457 C 60.4 197.297 61.267 196.002 62.19 194.91 C 61.144 194.828 60.237 194.715 59.627 194.557 C 58.48 194.26 58.001 193.885 57.478 193.363 C 56.996 192.884 56.683 192.244 56.523 191.612 C 56.36 190.971 56.311 190.231 56.523 189.543 C 56.76 188.771 57.439 187.756 58.035 187.234 C 58.55 186.783 58.705 186.588 59.786 186.438 C 61.641 186.182 67.749 186.367 71.849 186.766 C 71.946 186.747 72.044 186.73 72.144 186.714 C 73.094 186.565 74.391 186.642 75.329 187.003 C 76.243 187.355 77.123 188.083 77.718 188.813 C 78.29 189.516 78.617 189.951 78.876 191.274 C 79.35 193.695 79.644 200.934 79.021 203.581 C 78.632 205.236 77.795 206.121 77.066 206.839 C 76.488 207.409 75.907 207.654 75.184 207.853 C 74.384 208.072 73.368 208.24 72.433 207.997 C 71.37 207.722 69.918 206.847 69.176 206.043 C 68.526 205.339 68.286 204.909 68.017 203.581 C 67.897 202.988 67.781 202.107 67.683 201.074 C 67.259 201.685 67.061 202.314 66.87 203.233 C 66.555 204.755 66.386 206.947 66.711 209.283 C 67.12 212.225 68.215 216.547 69.735 219.63 C 71.198 222.596 73.452 225.479 75.546 227.51 C 77.388 229.297 78.826 230.336 81.436 231.49 C 81.569 231.549 81.706 231.607 81.847 231.666 C 83.811 226.336 89.002 215.054 91.386 210.556 C 93.135 207.255 93.958 206.267 95.843 203.711 C 98.176 200.548 101.479 195.688 104.678 192.965 C 107.113 190.893 110.369 189.021 112.733 188.107 C 112.134 186.722 111.803 185.205 111.803 183.613 C 111.803 177.107 117.326 171.833 124.14 171.833 Z M 124.14 190.681 C 128.228 190.681 131.542 187.517 131.542 183.613 C 131.542 179.709 128.228 176.545 124.14 176.545 C 120.052 176.545 116.738 179.709 116.738 183.613 C 116.738 187.517 120.052 190.681 124.14 190.681 Z" style="stroke: rgb(0, 0, 0);"/>
</svg>